<?xml version="1.0" encoding="UTF-8"?>
<svg id="Capa_1" xmlns="http://www.w3.org/2000/svg" version="1.1" viewBox="0 0 3000 1155">
  <!-- Generator: Adobe Illustrator 30.2.1, SVG Export Plug-In . SVG Version: 2.1.1 Build 1)  -->
  <g>
    <path d="M361.75,27.5h176.32v381.45c0,58.78-10.48,106.93-31.43,144.46-20.95,37.53-50.63,65.03-89.03,82.49-38.41,17.46-83.51,26.19-135.3,26.19h-75.07c-56.45,0-102.43-8.16-137.92-24.44v-156.25c16.28,11.65,33.17,20.23,50.63,25.75,17.46,5.54,38.41,8.29,62.85,8.29h75.07c30.84,0,55.86-6.98,75.07-20.95,19.2-13.97,28.8-39.57,28.8-76.81V27.5Z"/>
    <path d="M1157.82,27.5h173.71v341.3c0,68.09-12.09,123.66-36.23,166.72-24.16,43.07-57.91,74.93-101.25,95.58-43.36,20.65-93.84,30.99-151.45,30.99h-115.22c-58.2,0-109.11-10.34-152.76-30.99-43.64-20.65-77.69-52.51-102.13-95.58-24.44-43.06-36.66-98.64-36.66-166.72V27.5h176.32v342.17c0,35.5,5.24,63.58,15.71,84.23,10.48,20.66,24.44,35.35,41.9,44.08,17.46,8.73,36.66,13.09,57.61,13.09h116.09c19.78,0,38.41-4.36,55.86-13.09,17.46-8.73,31.56-23.42,42.33-44.08,10.76-20.65,16.15-48.73,16.15-84.23V27.5Z"/>
    <path d="M1659.74,27.5h196.4l313.37,623.24h-184.18l-51.5-109.98h-361.37l-52.38,109.98h-177.19L1659.74,27.5ZM1872.72,409.82l-109.98-233.93h-15.71l-111.73,233.93h237.42Z"/>
    <path d="M2234.1,27.5h275.83l235.68,474.85h15.71V27.5h169.34v623.24h-276.71l-234.8-474.85h-15.71v474.85h-169.34V27.5Z"/>
  </g>
  <g>
    <path d="M180.72,1127.5h-111.39v-393.72h111.39v393.72Z"/>
    <path d="M252.4,733.78h174.25l148.88,299.98h9.93v-299.98h106.98v393.72h-174.8l-148.33-299.98h-9.93v299.98h-106.98v-393.72Z"/>
    <path d="M764.12,733.78h332.51v86.02h-221.12v60.11h210.65v86.02h-210.65v161.57h-111.39v-393.72Z"/>
    <path d="M1278.6,733.78h124.07l197.96,393.72h-116.35l-32.53-69.48h-228.29l-33.09,69.48h-111.94l200.17-393.72ZM1413.15,975.31l-69.48-147.78h-9.93l-70.58,147.78h149.99Z"/>
    <path d="M1641.44,733.78h174.25l148.88,299.98h9.93v-299.98h106.98v393.72h-174.8l-148.33-299.98h-9.93v299.98h-106.98v-393.72Z"/>
    <path d="M2394.68,1127.5h-111.39v-303.29h-159.36v-90.43h430.11v90.43h-159.36v303.29Z"/>
    <path d="M2596.5,733.78h334.17v84.92h-223.33v61.76h212.85v84.92h-212.85v77.2h223.33v84.92h-334.17v-393.72Z"/>
  </g>
</svg>